<?xml version="1.0" encoding="utf-8"?>
<svg width="48px" height="48px" viewBox="0 0 48 48" version="1.1" xmlns:xlink="http://www.w3.org/1999/xlink" xmlns="http://www.w3.org/2000/svg">
  <defs>
    <rect width="48" height="48" id="artboard_1" />
    <clipPath id="clip_1">
      <use xlink:href="#artboard_1" clip-rule="evenodd" />
    </clipPath>
  </defs>
  <g id="Full-HD" clip-path="url(#clip_1)">
    <use xlink:href="#artboard_1" stroke="none" fill="#FC42B1" fill-opacity="0" />
    <g id="SR" fill="#FC42B1" transform="translate(1 2)">
      <path d="M15.6182 12.4415Q17.2617 13.5138 17.4902 15.4561L20.5576 15.4561Q20.4961 13.4698 19.3359 11.9142Q18.1758 10.3497 16.207 9.45322Q14.2383 8.54794 11.707 8.54794Q9.20215 8.54794 7.17188 9.46201Q5.15039 10.3761 3.95508 12.0196Q2.75977 13.6632 2.75977 15.8604Q2.75977 18.506 4.54395 20.1495Q6.33691 21.7843 9.41309 22.6632L12.6299 23.586Q14.0098 23.9727 15.1963 24.4825Q16.3916 24.9923 17.1211 25.8097Q17.8506 26.627 17.8506 27.9278Q17.8506 29.3604 17.0068 30.4327Q16.1631 31.4962 14.7129 32.0938Q13.2715 32.6915 11.4521 32.6915Q9.89648 32.6915 8.54297 32.2257Q7.19824 31.7511 6.31934 30.7931Q5.44922 29.8263 5.31738 28.3409L2.04785 28.3409Q2.27637 31.5665 4.75488 33.5616Q7.2334 35.5479 11.4521 35.5479Q14.4756 35.5479 16.585 34.546Q18.7031 33.5352 19.8105 31.8214Q20.918 30.1075 20.918 27.9806Q20.918 26.1436 20.1621 24.878Q19.4062 23.6124 18.2461 22.8038Q17.0947 21.9864 15.8291 21.5118Q14.5723 21.0372 13.5527 20.7735L10.8896 20.0528Q9.92285 19.7979 8.73633 19.3233Q7.55859 18.8399 6.68848 17.9786Q5.82715 17.1173 5.82715 15.711Q5.82715 13.8302 7.40918 12.5997Q9 11.3604 11.6104 11.3604Q13.9834 11.3604 15.6182 12.4415ZM26.1329 8.90829L26.1329 35.0909L29.297 35.0909L29.297 24.8604L35.0275 24.8604Q35.3702 24.8604 35.6954 24.8517L41.215 35.0909L44.8976 35.0909L38.9825 24.2716Q41.4874 23.419 42.6827 21.4854Q43.878 19.5431 43.878 16.9415Q43.878 14.6212 42.9288 12.8106Q41.9796 10.9913 40.0108 9.95419Q38.0421 8.90829 34.9747 8.90829L26.1329 8.90829ZM34.922 22.004L29.297 22.004L29.297 11.7208L34.878 11.7208Q38.0597 11.7208 39.4044 13.1446Q40.7579 14.5685 40.7579 16.9415Q40.7579 19.2882 39.4132 20.6505Q38.0685 22.004 34.922 22.004Z" />
    </g>
  </g>
</svg>